<svg width="100" height="20" xmlns="http://www.w3.org/2000/svg">
  <g fill="#e0e0e0">
    <path d="M10,1.5 L12.5,6.5 L18,7.3 L14,11.2 L15,16.5 L10,14 L5,16.5 L6,11.2 L2,7.3 L7.5,6.5 Z" />
    <path d="M30,1.5 L32.5,6.5 L38,7.3 L34,11.2 L35,16.5 L30,14 L25,16.5 L26,11.2 L22,7.3 L27.5,6.5 Z" />
    <path d="M50,1.5 L52.5,6.5 L58,7.3 L54,11.2 L55,16.5 L50,14 L45,16.5 L46,11.2 L42,7.3 L47.5,6.5 Z" />
    <path d="M70,1.5 L72.5,6.5 L78,7.3 L74,11.2 L75,16.5 L70,14 L65,16.5 L66,11.2 L62,7.3 L67.5,6.5 Z" />
    <path d="M90,1.5 L92.5,6.5 L98,7.3 L94,11.2 L95,16.5 L90,14 L85,16.5 L86,11.2 L82,7.3 L87.5,6.5 Z" />
  </g>
</svg> 